<svg width="25" height="26" viewBox="0 0 25 26" fill="none" xmlns="http://www.w3.org/2000/svg">
<g clip-path="url(#clip0_41_1008)">
<path d="M12.5 25.5C19.4036 25.5 25 19.9036 25 13C25 6.09644 19.4036 0.5 12.5 0.5C5.59644 0.5 0 6.09644 0 13C0 19.9036 5.59644 25.5 12.5 25.5Z" fill="#0052B4"/>
<path d="M12.5 5.3913L12.9048 6.63685H14.2144L13.1548 7.40663L13.5596 8.65218L12.5 7.88236L11.4405 8.65218L11.8452 7.40663L10.7857 6.63685H12.0953L12.5 5.3913Z" fill="#FFDA44"/>
<path d="M7.11982 7.61984L8.28681 8.21437L9.21284 7.28839L9.0079 8.58185L10.1748 9.17643L8.88134 9.38131L8.67646 10.6749L8.08188 9.50792L6.78842 9.71285L7.71445 8.78683L7.11982 7.61984Z" fill="#FFDA44"/>
<path d="M4.89136 13L6.13691 12.5953V11.2856L6.90664 12.3452L8.15225 11.9405L7.38237 13L8.15225 14.0595L6.90664 13.6548L6.13691 14.7144V13.4047L4.89136 13Z" fill="#FFDA44"/>
<path d="M7.11982 18.3802L7.7144 17.2132L6.78842 16.2872L8.08193 16.4921L8.67641 15.3252L8.88134 16.6187L10.1748 16.8236L9.008 17.4182L9.21284 18.7116L8.28681 17.7856L7.11982 18.3802Z" fill="#FFDA44"/>
<path d="M12.5 20.6087L12.0953 19.3631H10.7857L11.8453 18.5934L11.4405 17.3479L12.5 18.1176L13.5596 17.3479L13.1548 18.5934L14.2144 19.3631H12.9047L12.5 20.6087Z" fill="#FFDA44"/>
<path d="M17.8802 18.3802L16.7133 17.7856L15.7872 18.7117L15.9921 17.4181L14.8253 16.8236L16.1187 16.6187L16.3236 15.3252L16.9182 16.4921L18.2116 16.2872L17.2856 17.2133L17.8802 18.3802Z" fill="#FFDA44"/>
<path d="M20.1087 13L18.8631 13.4047V14.7144L18.0934 13.6548L16.8479 14.0595L17.6177 13L16.8479 11.9405L18.0934 12.3452L18.8631 11.2856V12.5953L20.1087 13Z" fill="#FFDA44"/>
<path d="M17.8802 7.61979L17.2856 8.78678L18.2117 9.71281L16.9181 9.50783L16.3236 10.6748L16.1187 9.38126L14.8253 9.17633L15.9921 8.5818L15.7872 7.28839L16.7133 8.21437L17.8802 7.61979Z" fill="#FFDA44"/>
</g>
<defs>
<clipPath id="clip0_41_1008">
<rect width="25" height="25" fill="white" transform="translate(0 0.5)"/>
</clipPath>
</defs>
</svg>
