<svg width="15" height="16" viewBox="0 0 15 16" fill="none" xmlns="http://www.w3.org/2000/svg">
<g id="ic:round-log-in">
<path id="Vector" d="M1.24951 6.12494L1.24951 11.7499C1.24951 12.4374 1.81201 12.9999 2.49951 12.9999L12.4995 12.9999C13.187 12.9999 13.7495 12.4374 13.7495 11.7499L13.7495 6.12494C13.7495 5.43744 13.187 4.87494 12.4995 4.87494L11.8745 4.87494C11.7088 4.87494 11.5498 4.94079 11.4326 5.058C11.3154 5.17521 11.2495 5.33418 11.2495 5.49994C11.2495 5.6657 11.3154 5.82467 11.4326 5.94188C11.5498 6.05909 11.7088 6.12494 11.8745 6.12494L12.4995 6.12494L12.4995 11.7499L2.49951 11.7499L2.49951 6.12494L3.12451 6.12494C3.29027 6.12494 3.44924 6.05909 3.56645 5.94188C3.68366 5.82467 3.74951 5.6657 3.74951 5.49994C3.74951 5.33418 3.68366 5.17521 3.56645 5.058C3.44924 4.94079 3.29027 4.87494 3.12451 4.87494L2.49951 4.87494C1.81201 4.87494 1.24951 5.43744 1.24951 6.12494Z" fill="#6F6F6F"/>
<path id="Vector_2" d="M10.1837 7.24687C10.4275 7.49062 10.4275 7.88437 10.1837 8.12812L7.94122 10.3706C7.82402 10.4878 7.66507 10.5536 7.49935 10.5536C7.33362 10.5536 7.17468 10.4878 7.05747 10.3706L4.81497 8.12813C4.70759 8.00932 4.64997 7.8538 4.65401 7.69371C4.65805 7.53362 4.72345 7.3812 4.83668 7.26796C4.94992 7.15473 5.10234 7.08933 5.26243 7.08529C5.42252 7.08125 5.57804 7.13887 5.69685 7.24625L6.87435 8.41875L6.87435 3C6.87435 2.83424 6.94019 2.67527 7.0574 2.55806C7.17461 2.44085 7.33359 2.375 7.49935 2.375C7.66511 2.375 7.82408 2.44085 7.94129 2.55806C8.0585 2.67527 8.12435 2.83424 8.12435 3L8.12435 8.41875L9.30185 7.24625C9.41898 7.12958 9.57759 7.06413 9.74291 7.06425C9.90823 7.06437 10.0668 7.13004 10.1837 7.24687Z" fill="#6F6F6F"/>
</g>
</svg>
