<svg width="30" height="30" viewBox="0 0 30 30" fill="none" xmlns="http://www.w3.org/2000/svg">
<g id="gg:link">
<g id="Group">
<path id="Vector" d="M18.535 15L20.3038 16.7675L23.8388 13.2325C24.7765 12.2948 25.3033 11.023 25.3033 9.69685C25.3033 8.37073 24.7765 7.09893 23.8388 6.16122C23.3745 5.69692 22.8233 5.32861 22.2166 5.07733C21.61 4.82605 20.9598 4.69672 20.3032 4.69672C18.977 4.69672 17.7052 5.22351 16.7675 6.16122L13.2325 9.69622L15 11.465L18.535 7.92872C19.004 7.45978 19.64 7.19634 20.3032 7.19634C20.9663 7.19634 21.6023 7.45978 22.0713 7.92872C22.5402 8.39766 22.8037 9.03367 22.8037 9.69685C22.8037 10.36 22.5402 10.996 22.0713 11.465L18.535 15ZM15 18.5362L16.7675 20.3037L13.2325 23.8387C12.2948 24.7764 11.023 25.3032 9.69691 25.3032C8.37079 25.3032 7.09899 24.7764 6.16128 23.8387C5.22357 22.901 4.69678 21.6292 4.69678 20.3031C4.69678 18.977 5.22357 17.7052 6.16128 16.7675L9.69628 13.2325L11.465 15L7.92878 18.5362C7.46001 19.0052 7.19672 19.6411 7.19684 20.3042C7.19696 20.9672 7.46047 21.6031 7.92941 22.0718C8.39834 22.5406 9.03429 22.8039 9.69735 22.8038C10.3604 22.8037 10.9963 22.5402 11.465 22.0712L15 18.535V18.5362Z" fill="white"/>
<path id="Vector_2" d="M18.5362 13.2325C18.7708 12.9979 18.9026 12.6798 18.9026 12.3481C18.9026 12.0164 18.7708 11.6983 18.5362 11.4637C18.3017 11.2292 17.9836 11.0974 17.6519 11.0974C17.3202 11.0974 17.002 11.2292 16.7675 11.4637L11.465 16.7675C11.3456 16.8828 11.2504 17.0207 11.1849 17.1732C11.1193 17.3257 11.0849 17.4898 11.0834 17.6557C11.082 17.8217 11.1136 17.9863 11.1765 18.1399C11.2393 18.2935 11.3321 18.4331 11.4495 18.5505C11.5669 18.6678 11.7064 18.7607 11.86 18.8235C12.0137 18.8864 12.1783 18.918 12.3442 18.9165C12.5102 18.9151 12.6742 18.8806 12.8267 18.8151C12.9792 18.7496 13.1172 18.6544 13.2325 18.535L18.535 13.2325H18.5362Z" fill="white"/>
</g>
</g>
</svg>
