<svg width="25" height="25" viewBox="0 0 25 25" fill="none" xmlns="http://www.w3.org/2000/svg">
<rect width="25" height="25" rx="12.5" fill="#D1D1D1" fill-opacity="0.2"/>
<path opacity="0.3" d="M8.74346 20V5.71429H13.3053C15.146 5.71429 16.4866 6.08778 17.3269 6.83474C18.1806 7.58171 18.6074 8.60879 18.6074 9.91598C18.6074 10.6896 18.434 11.4166 18.0872 12.0968C17.7404 12.7771 17.1602 13.324 16.3465 13.7375C15.5462 14.151 14.4524 14.3578 13.0652 14.3578H11.7647V20H8.74346ZM7.14282 17.8592V15.9184H14.8459V17.8592H7.14282ZM7.14282 14.3578V11.8768H13.0052V14.3578H7.14282ZM12.7651 11.8768C13.3386 11.8768 13.8322 11.8167 14.2457 11.6967C14.6592 11.5633 14.9793 11.3566 15.206 11.0764C15.4328 10.7963 15.5462 10.4429 15.5462 10.016C15.5462 9.40244 15.3528 8.94892 14.966 8.65547C14.5791 8.34868 13.9722 8.19529 13.1452 8.19529H11.7647V11.8768H12.7651Z" fill="#292421"/>
</svg>
