<svg width="30" height="31" viewBox="0 0 30 31" fill="none" xmlns="http://www.w3.org/2000/svg">
<g id="swap">
<g id="Group 34136">
<rect id="Rectangle 789" x="17.8903" y="5.95215" width="6.34313" height="6.34313" rx="3.17156" stroke="white" stroke-width="3"/>
<rect id="Rectangle 790" x="5.4314" y="19.484" width="6.34313" height="6.34313" rx="3.17156" stroke="white" stroke-width="3"/>
<g id="Group 34135">
<path id="Union" fill-rule="evenodd" clip-rule="evenodd" d="M11.284 8.60307L11.284 8.62911C10.9428 8.62911 10.6156 8.76465 10.3744 9.00589C10.1332 9.24714 9.99762 9.57434 9.99762 9.91551L6.99622 9.91551C6.99622 8.77831 7.44797 7.68769 8.25209 6.88358C9.0562 6.07946 10.1468 5.62771 11.284 5.62771L11.284 5.6523C11.3699 5.63614 11.4585 5.62769 11.549 5.62769L13.7011 5.62769C14.4875 5.62769 15.1251 6.26521 15.1251 7.05164L15.1251 7.20374C15.1251 7.99016 14.4875 8.62769 13.7011 8.62769L11.549 8.62768C11.4585 8.62768 11.3699 8.61923 11.284 8.60307Z" fill="white"/>
<rect id="Rectangle 791" x="10" y="8.47046" width="5.84323" height="3" rx="1.42395" transform="rotate(90 10 8.47046)" fill="white"/>
<path id="Polygon 2" d="M9.22928 15.9248C8.83425 16.3459 8.16574 16.3459 7.77072 15.9248L4.45095 12.3864C3.85185 11.7478 4.30462 10.7021 5.18024 10.7021L11.8198 10.7021C12.6954 10.7021 13.1482 11.7478 12.549 12.3864L9.22928 15.9248Z" fill="white"/>
</g>
<g id="Group 34136_2">
<path id="Union_2" fill-rule="evenodd" clip-rule="evenodd" d="M18.9717 22.8742L18.9717 22.8481C19.3129 22.8481 19.6401 22.7126 19.8813 22.4713C20.1226 22.2301 20.2581 21.9029 20.2581 21.5617L23.2595 21.5617C23.2595 22.6989 22.8078 23.7895 22.0037 24.5937C21.1995 25.3978 20.1089 25.8495 18.9717 25.8495L18.9717 25.8249C18.8859 25.8411 18.7973 25.8495 18.7067 25.8495L16.5546 25.8495C15.7682 25.8495 15.1307 25.212 15.1307 24.4256L15.1307 24.2735C15.1307 23.4871 15.7682 22.8495 16.5546 22.8495L18.7067 22.8495C18.7973 22.8495 18.8859 22.858 18.9717 22.8742Z" fill="white"/>
<rect id="Rectangle 791_2" x="20.2557" y="23.0068" width="5.84323" height="3" rx="1.42395" transform="rotate(-90 20.2557 23.0068)" fill="white"/>
<path id="Polygon 2_2" d="M21.2441 15.575C21.6428 15.1146 22.3572 15.1146 22.7559 15.575L25.7632 19.0475C26.3241 19.6951 25.864 20.7021 25.0073 20.7021L18.9927 20.7021C18.136 20.7021 17.6759 19.6951 18.2368 19.0475L21.2441 15.575Z" fill="white"/>
</g>
</g>
</g>
</svg>
