<svg width="46" height="46" viewBox="0 0 46 46" fill="none" xmlns="http://www.w3.org/2000/svg">
<g id="Tab Two">
<rect x="0.37793" y="0.868164" width="45" height="45" rx="22.5" fill="#161616"/>
<path id="Vector" d="M23.6863 20.4387C24.1836 21.3 24.3184 22.3236 24.061 23.2843C23.8036 24.2449 23.1751 25.064 22.3137 25.5613C21.4524 26.0586 20.4288 26.1933 19.4682 25.9359C18.5075 25.6785 17.6884 25.05 17.1911 24.1887C16.6939 23.3274 16.5591 22.3038 16.8165 21.3431C17.0739 20.3825 17.7024 19.5634 18.5637 19.0661C19.4251 18.5688 20.4486 18.4341 21.4093 18.6915C22.37 18.9489 23.1891 19.5774 23.6863 20.4387ZM22.0625 21.3762C21.8139 20.9455 21.4044 20.6313 20.924 20.5026C20.4437 20.3739 19.9319 20.4413 19.5012 20.6899C19.0706 20.9385 18.7563 21.3481 18.6276 21.8284C18.4989 22.3088 18.5663 22.8205 18.8149 23.2512C19.0636 23.6819 19.4731 23.9961 19.9535 24.1248C20.4338 24.2535 20.9456 24.1861 21.3762 23.9375C21.8069 23.6889 22.1211 23.2793 22.2499 22.799C22.3786 22.3187 22.3112 21.8069 22.0625 21.3762ZM8.11783 23.4733C7.47096 22.3528 7.85528 20.9185 8.9757 20.2716L24.4018 11.3654C25.5222 10.7185 26.9565 11.1028 27.6034 12.2233L32.7597 21.1541C33.4065 22.2746 33.0222 23.7089 31.9018 24.3558L16.4757 33.262C15.3553 33.9089 13.921 33.5246 13.2741 32.4041L8.11783 23.4733ZM9.9132 21.8954C9.80554 21.9576 9.72698 22.06 9.6948 22.1801C9.66262 22.3001 9.67947 22.4281 9.74163 22.5358L10.4448 23.7536L11.2567 23.2849C11.472 23.1605 11.6291 22.9558 11.6935 22.7156C11.7578 22.4754 11.7241 22.2195 11.5998 22.0042L11.1311 21.1923L9.9132 21.8954ZM14.8979 31.4666C15.0273 31.6907 15.3141 31.7676 15.5382 31.6382L16.7561 30.9351L16.2873 30.1232C16.163 29.9079 15.9582 29.7507 15.718 29.6864C15.4779 29.622 15.222 29.6557 15.0067 29.7801L14.1948 30.2488L14.8979 31.4666ZM17.9111 29.1857L18.3798 29.9976L28.1226 24.3726L27.6539 23.5607C27.2809 22.9147 27.1799 22.147 27.3729 21.4265C27.566 20.706 28.0373 20.0917 28.6833 19.7188L29.4952 19.25L27.6202 16.0024L26.8083 16.4712C26.1623 16.8441 25.3947 16.9452 24.6742 16.7521C23.9536 16.5591 23.3393 16.0877 22.9664 15.4417L22.4976 14.6298L12.7548 20.2548L13.2236 21.0667C13.5966 21.7127 13.6976 22.4804 13.5046 23.2009C13.3115 23.9214 12.8401 24.5357 12.1942 24.9087L11.3823 25.3774L13.2573 28.625L14.0692 28.1563C14.7151 27.7833 15.4828 27.6822 16.2033 27.8753C16.9238 28.0683 17.5381 28.5397 17.9111 29.1857ZM29.7464 23.4351L30.9643 22.732C31.0719 22.6698 31.1505 22.5674 31.1827 22.4473C31.2149 22.3273 31.198 22.1993 31.1359 22.0916L30.4327 20.8738L29.6208 21.3426C29.4055 21.4669 29.2484 21.6716 29.184 21.9118C29.1197 22.152 29.1534 22.4079 29.2777 22.6232L29.7464 23.4351ZM26.6827 14.3786L25.9796 13.1608C25.9174 13.0531 25.8151 12.9745 25.695 12.9424C25.5749 12.9102 25.4469 12.927 25.3393 12.9892L24.1214 13.6923L24.5902 14.5042C24.7145 14.7195 24.9193 14.8767 25.1594 14.941C25.3996 15.0054 25.6555 14.9717 25.8708 14.8474L26.6827 14.3786ZM22.0042 34.4002C21.49 34.6974 20.8948 34.8242 20.3041 34.7623C19.7134 34.7004 19.1574 34.4531 18.7158 34.0558C18.964 33.9645 19.2059 33.8508 19.443 33.7139L32.8393 25.9796C33.8083 25.4201 34.5153 24.4987 34.8049 23.4179C35.0945 22.3372 34.9429 21.1856 34.3834 20.2166L30.01 12.6416C30.5821 12.5353 31.173 12.609 31.7014 12.8526C32.2299 13.0962 32.6697 13.4977 32.9604 14.0018L36.0072 19.2791C36.4074 19.9722 36.6671 20.7372 36.7715 21.5306C36.876 22.324 36.8231 23.1302 36.616 23.9032C36.4089 24.6762 36.0516 25.4008 35.5644 26.0357C35.0772 26.6705 34.4698 27.2032 33.7768 27.6034L22.0042 34.4002Z" fill="white"/>
</g>
</svg>
