<svg width="25" height="26" viewBox="0 0 25 26" fill="none" xmlns="http://www.w3.org/2000/svg">
<g clip-path="url(#clip0_41_987)">
<path d="M12.5 25.5C19.4036 25.5 25 19.9036 25 13C25 6.09644 19.4036 0.5 12.5 0.5C5.59644 0.5 0 6.09644 0 13C0 19.9036 5.59644 25.5 12.5 25.5Z" fill="#F0F0F0"/>
<path d="M7.06523 17.3478L8.15219 24.7226C9.5063 25.2251 10.971 25.5 12.5 25.5C17.8745 25.5 22.4563 22.1078 24.2225 17.3478H7.06523Z" fill="black"/>
<path d="M7.06523 8.6522L8.15219 1.27739C9.5063 0.774902 10.971 0.5 12.5 0.5C17.8745 0.5 22.4563 3.89219 24.2225 8.6522H7.06523Z" fill="#6DA544"/>
<path d="M0 13C0 18.3746 3.39224 22.9564 8.1522 24.7225V1.2775C3.39224 3.04366 0 7.62545 0 13Z" fill="#A2001D"/>
</g>
<defs>
<clipPath id="clip0_41_987">
<rect width="25" height="25" fill="white" transform="translate(0 0.5)"/>
</clipPath>
</defs>
</svg>
